Hanif_Deep_5_0_grf.mot
version=1
nRows=21
nColumns=19
inDegrees=yes
endheader
time	right_ground_force_vx	right_ground_force_vy	right_ground_force_vz	right_ground_force_px	right_ground_force_py	right_ground_force_pz	right_ground_torque_x	right_ground_torque_y	right_ground_torque_z	left_ground_force_vx	left_ground_force_vy	left_ground_force_vz	left_ground_force_px	left_ground_force_py	left_ground_force_pz	left_ground_torque_x	left_ground_torque_y	left_ground_torque_z
5.300000	7.752160	289.805000	69.527400	0.155447	0.000000	-1.452860	-15.375000	4.506560	-12.672500	4.318870	285.285000	-63.864500	0.148263	0.000000	-0.966980	18.202700	-6.877600	-14.021600
5.305000	7.180550	287.790000	69.588200	0.155648	0.000000	-1.452830	-15.276300	4.488410	-12.517400	4.991060	287.313000	-63.760700	0.147589	0.000000	-0.966621	18.221200	-6.990140	-14.319100
5.310000	6.782810	287.610000	69.781200	0.154845	0.000000	-1.453140	-15.179900	4.470950	-12.753700	5.855080	288.041000	-63.566300	0.147146	0.000000	-0.966725	18.287500	-7.069840	-14.487800
5.315000	6.607660	286.507000	69.559900	0.154712	0.000000	-1.453770	-14.942100	4.461090	-12.741000	6.307520	286.577000	-63.538300	0.146449	0.000000	-0.966717	18.186900	-7.114920	-14.612600
5.320000	6.459950	286.318000	69.153400	0.154783	0.000000	-1.453880	-14.900200	4.451300	-12.708000	7.249460	285.820000	-63.978800	0.146084	0.000000	-0.966541	18.080500	-7.099610	-14.696300
5.325000	6.019370	284.662000	69.298000	0.154421	0.000000	-1.453300	-14.980700	4.491020	-12.727400	7.018310	284.891000	-64.017600	0.145769	0.000000	-0.966047	17.882300	-7.131590	-14.727100
5.330000	5.836650	281.886000	68.660900	0.154543	0.000000	-1.453420	-14.802400	4.398890	-12.577200	6.691910	283.783000	-64.318300	0.145395	0.000000	-0.965705	17.718800	-7.145660	-14.767600
5.335000	5.519350	281.139000	68.172400	0.154131	0.000000	-1.454350	-14.501400	4.417750	-12.651700	6.677030	284.684000	-64.648200	0.144617	0.000000	-0.965896	17.832800	-7.095740	-15.063700
5.340000	5.070300	280.045000	68.089800	0.154004	0.000000	-1.453720	-14.623900	4.343430	-12.650900	6.673210	283.030000	-64.693800	0.143988	0.000000	-0.965565	17.634700	-7.135860	-15.145700
5.345000	4.741790	278.740000	67.408100	0.153945	0.000000	-1.453570	-14.596300	4.480600	-12.564700	6.666080	281.372000	-65.138300	0.144205	0.000000	-0.965548	17.526700	-7.117160	-14.989500
5.350000	3.919340	274.872000	66.470200	0.153960	0.000000	-1.452890	-14.581700	4.399310	-12.381700	6.390070	281.910000	-64.994100	0.143733	0.000000	-0.965211	17.469900	-7.055890	-15.170400
5.355000	3.218320	276.559000	66.037900	0.154276	0.000000	-1.452930	-14.664400	4.348730	-12.368800	5.986490	282.286000	-64.756200	0.143523	0.000000	-0.964551	17.310800	-7.051170	-15.248600
5.360000	2.532560	274.526000	65.460600	0.154317	0.000000	-1.452450	-14.689800	4.306970	-12.259600	5.804470	280.805000	-64.930500	0.143119	0.000000	-0.964892	17.319100	-6.983110	-15.294800
5.365000	1.239910	273.081000	64.443700	0.154732	0.000000	-1.452060	-14.725000	4.206810	-12.073200	5.640700	280.636000	-64.157100	0.143075	0.000000	-0.964105	17.086000	-7.101370	-15.265600
5.370000	0.653236	270.313000	63.950500	0.155057	0.000000	-1.451870	-14.628600	4.137010	-11.858300	5.558320	280.457000	-64.063400	0.143201	0.000000	-0.964661	17.234100	-6.971290	-15.246800
5.375000	-0.308485	268.107000	63.110500	0.154921	0.000000	-1.451300	-14.666700	4.125830	-11.780600	4.940180	279.565000	-63.451600	0.142899	0.000000	-0.964841	17.234700	-6.980170	-15.270800
5.380000	-1.112060	269.589000	62.356600	0.155378	0.000000	-1.451530	-14.689500	4.077700	-11.716100	5.168970	279.565000	-63.462600	0.142853	0.000000	-0.965389	17.384300	-7.049580	-15.272500
5.385000	-1.718630	269.789000	61.998400	0.156325	0.000000	-1.450810	-14.899500	4.032900	-11.456700	5.268300	280.300000	-63.101200	0.143296	0.000000	-0.965368	17.422900	-7.033560	-15.190200
5.390000	-0.982323	274.032000	62.081400	0.155659	0.000000	-1.450510	-15.210400	4.234040	-11.802900	4.814710	280.859000	-63.355600	0.143850	0.000000	-0.965339	17.453700	-7.057380	-15.048400
5.395000	0.842981	277.498000	63.355000	0.156066	0.000000	-1.451060	-15.240200	4.349960	-11.844600	4.730480	279.772000	-63.176600	0.143722	0.000000	-0.965912	17.548300	-6.963180	-15.042700
5.400000	2.882550	281.001000	64.220900	0.156181	0.000000	-1.450860	-15.478100	4.538330	-11.955300	4.036720	280.689000	-63.509900	0.144112	0.000000	-0.965640	17.536600	-6.975380	-14.969300
